<svg xmlns="http://www.w3.org/2000/svg" enable-background="new 0 0 75.1 63.8" viewBox="0 0 75.1 63.8" id="dropbox">
  <path fill="#0061ff" d="M37.6,12L18.8,24l18.8,12L18.8,48L0,35.9l18.8-12L0,12L18.8,0L37.6,12z M18.7,51.8l18.8-12l18.8,12l-18.8,12
	L18.7,51.8z M37.6,35.9l18.8-12L37.6,12L56.3,0l18.8,12L56.3,24l18.8,12L56.3,48L37.6,35.9z"></path>
  <g display="none">
    <rect width="506" height="71.8" x="-105" y="5" fill="none"></rect>
    <path d="M0.2,13.6h16.3c10.4,0,19,6.1,19,19.8v2.9c0,13.8-8,20-18.7,20H0.2V13.6z M9.4,21.3v27.2h7c5.9,0,9.9-3.9,9.9-12.5v-2.2
			c0-8.6-4.1-12.5-10.2-12.5H9.4z M40.4,21.8h7.3l1.1,8c1.4-5.5,4.9-8.3,11.3-8.3h2.2v9.2h-3.7c-7.4,0-9.2,2.6-9.2,9.9v15.8h-9
			C40.4,56.4,40.4,21.8,40.4,21.8z M64.3,39.8v-1c0-11.6,7.4-17.9,17.5-17.9c10.3,0,17.5,6.4,17.5,17.9v1c0,11.4-7,17.5-17.5,17.5
			C70.6,57.3,64.3,51.2,64.3,39.8z M90.1,39.7v-0.8c0-6.5-3.2-10.3-8.3-10.3c-5,0-8.4,3.5-8.4,10.3v0.8c0,6.2,3.2,9.7,8.3,9.7
			C86.9,49.4,90.1,46,90.1,39.7z M104,21.8h7.6l0.9,6.6c1.9-4.4,5.7-7.4,11.4-7.4c8.8,0,14.6,6.4,14.6,18v1
			c0,11.4-6.4,17.3-14.6,17.3c-5.5,0-9.2-2.5-11-6.5v17.5H104V21.8z M129.3,39.8V39c0-6.9-3.5-10.3-8.3-10.3c-5,0-8.4,3.8-8.4,10.3
			v0.7c0,6.1,3.2,10,8.2,10C126,49.5,129.3,46.1,129.3,39.8z M151.7,50.1l-0.7,6.3h-7.8V10.2h8.8V28c1.9-4.5,5.8-7,11.2-7
			c8.2,0.1,14.3,5.8,14.3,17.3v1c0,11.5-5.8,18-14.6,18C157.3,57.3,153.5,54.5,151.7,50.1z M168.5,39.3v-0.8c0-6.4-3.5-9.8-8.3-9.8
			c-5,0-8.4,4-8.4,10v0.7c0,6.5,3.3,10.2,8.3,10.2C165.3,49.5,168.5,46.1,168.5,39.3z M181.6,39.8v-1c0-11.6,7.4-17.9,17.5-17.9
			c10.3,0,17.5,6.4,17.5,17.9v1c0,11.4-7.1,17.5-17.5,17.5C187.9,57.3,181.6,51.2,181.6,39.8z M207.4,39.7v-0.8
			c0-6.5-3.2-10.3-8.3-10.3c-5,0-8.4,3.5-8.4,10.3v0.8c0,6.2,3.2,9.7,8.3,9.7C204.2,49.4,207.4,46,207.4,39.7z M228.3,38.4
			l-12.1-16.7h10.4l7,10.4l7.1-10.4H251l-12.3,16.6l13,18h-10.2l-8-11.5l-7.7,11.5h-10.6L228.3,38.4z"></path>
  </g>
</svg>
