<?xml version="1.0" encoding="UTF-8"?> <svg xmlns="http://www.w3.org/2000/svg" width="146" height="52" viewBox="0 0 146 52" fill="none"><path d="M145.069 49.7164V46.9369C145.069 46.5867 144.989 46.3253 144.83 46.1528C144.671 45.9803 144.421 45.8941 144.081 45.8941C143.632 45.8941 143.302 46.0156 143.093 46.2587C142.884 46.5017 142.78 46.9029 142.78 47.4622V49.7164H142.129V45.4197H142.658L142.764 46.0078H142.795C142.929 45.7961 143.116 45.6327 143.356 45.5177C143.596 45.4001 143.864 45.3413 144.16 45.3413C144.677 45.3413 145.067 45.4668 145.328 45.7177C145.589 45.9659 145.72 46.3645 145.72 46.9133V49.7164H145.069Z" fill="black"></path><path d="M140.984 47.5641C140.984 48.2645 140.807 48.8121 140.455 49.2067C140.102 49.5987 139.614 49.7948 138.992 49.7948C138.608 49.7948 138.267 49.7046 137.969 49.5243C137.671 49.3439 137.441 49.0852 137.279 48.748C137.117 48.4109 137.036 48.0163 137.036 47.5641C137.036 46.8637 137.211 46.3188 137.561 45.9294C137.912 45.5373 138.398 45.3413 139.02 45.3413C139.621 45.3413 140.098 45.5412 140.451 45.9411C140.806 46.341 140.984 46.882 140.984 47.5641ZM137.71 47.5641C137.71 48.113 137.82 48.5311 138.04 48.8186C138.259 49.1061 138.582 49.2498 139.008 49.2498C139.434 49.2498 139.757 49.1074 139.976 48.8225C140.199 48.535 140.31 48.1156 140.31 47.5641C140.31 47.0179 140.199 46.6036 139.976 46.3214C139.757 46.0365 139.431 45.8941 139 45.8941C138.574 45.8941 138.253 46.0339 138.036 46.3135C137.819 46.5932 137.71 47.01 137.71 47.5641Z" fill="black"></path><path d="M135.895 49.7162H135.244V45.4195H135.895V49.7162ZM135.189 44.2552C135.189 44.1062 135.226 43.9978 135.299 43.9298C135.372 43.8593 135.464 43.824 135.574 43.824C135.678 43.824 135.768 43.8593 135.844 43.9298C135.92 44.0004 135.958 44.1088 135.958 44.2552C135.958 44.4016 135.92 44.5113 135.844 44.5845C135.768 44.6551 135.678 44.6904 135.574 44.6904C135.464 44.6904 135.372 44.6551 135.299 44.5845C135.226 44.5113 135.189 44.4016 135.189 44.2552Z" fill="black"></path><path d="M133.794 49.2575C133.909 49.2575 134.02 49.2497 134.127 49.234C134.234 49.2157 134.319 49.1974 134.382 49.1791V49.677C134.312 49.711 134.207 49.7384 134.069 49.7593C133.933 49.7829 133.81 49.7946 133.7 49.7946C132.869 49.7946 132.453 49.3569 132.453 48.4813V45.9253H131.838V45.6117L132.453 45.3412L132.728 44.4238H133.104V45.4196H134.351V45.9253H133.104V48.4539C133.104 48.7126 133.166 48.9113 133.288 49.0498C133.411 49.1883 133.58 49.2575 133.794 49.2575Z" fill="black"></path><path d="M128.086 45.4197V48.207C128.086 48.5572 128.166 48.8186 128.325 48.9911C128.485 49.1636 128.734 49.2498 129.074 49.2498C129.524 49.2498 129.852 49.127 130.058 48.8813C130.267 48.6356 130.372 48.2344 130.372 47.6778V45.4197H131.023V49.7163H130.486L130.391 49.14H130.356C130.223 49.3517 130.037 49.5138 129.8 49.6262C129.564 49.7385 129.295 49.7947 128.992 49.7947C128.469 49.7947 128.077 49.6706 127.816 49.4223C127.557 49.174 127.428 48.7768 127.428 48.2305V45.4197H128.086Z" fill="black"></path><path d="M126.095 49.7162H125.444V43.6162H126.095V49.7162Z" fill="black"></path><path d="M124.299 47.5641C124.299 48.2645 124.123 48.8121 123.77 49.2067C123.417 49.5987 122.93 49.7948 122.308 49.7948C121.924 49.7948 121.583 49.7046 121.285 49.5243C120.987 49.3439 120.757 49.0852 120.595 48.748C120.433 48.4109 120.352 48.0163 120.352 47.5641C120.352 46.8637 120.527 46.3188 120.877 45.9294C121.227 45.5373 121.713 45.3413 122.335 45.3413C122.936 45.3413 123.413 45.5412 123.766 45.9411C124.122 46.341 124.299 46.882 124.299 47.5641ZM121.026 47.5641C121.026 48.113 121.136 48.5311 121.355 48.8186C121.575 49.1061 121.897 49.2498 122.323 49.2498C122.749 49.2498 123.072 49.1074 123.292 48.8225C123.514 48.535 123.625 48.1156 123.625 47.5641C123.625 47.0179 123.514 46.6036 123.292 46.3214C123.072 46.0365 122.747 45.8941 122.316 45.8941C121.89 45.8941 121.568 46.0339 121.351 46.3135C121.134 46.5932 121.026 47.01 121.026 47.5641Z" fill="black"></path><path d="M119.517 48.1911C119.517 48.6956 119.334 49.0889 118.968 49.3712C118.602 49.6534 118.106 49.7945 117.478 49.7945C116.799 49.7945 116.276 49.707 115.91 49.5319V48.889C116.145 48.9883 116.401 49.0667 116.679 49.1242C116.956 49.1817 117.23 49.2104 117.502 49.2104C117.946 49.2104 118.281 49.1268 118.505 48.9595C118.73 48.7896 118.843 48.5544 118.843 48.2539C118.843 48.0552 118.802 47.8932 118.721 47.7678C118.643 47.6397 118.509 47.5221 118.321 47.4149C118.136 47.3078 117.852 47.1862 117.47 47.0503C116.937 46.8596 116.556 46.6335 116.326 46.3721C116.098 46.1108 115.985 45.7697 115.985 45.3489C115.985 44.9072 116.151 44.5557 116.483 44.2944C116.814 44.033 117.254 43.9023 117.8 43.9023C118.369 43.9023 118.893 44.0069 119.372 44.216L119.164 44.7962C118.691 44.5975 118.231 44.4982 117.784 44.4982C117.431 44.4982 117.156 44.574 116.957 44.7256C116.758 44.8772 116.659 45.0876 116.659 45.3568C116.659 45.5554 116.696 45.7187 116.769 45.8468C116.842 45.9723 116.965 46.0886 117.137 46.1957C117.312 46.3003 117.579 46.4166 117.937 46.5446C118.538 46.7589 118.951 46.9889 119.176 47.2346C119.403 47.4803 119.517 47.7991 119.517 48.1911Z" fill="black"></path><path d="M111.335 49.7947C110.661 49.7947 110.133 49.5986 109.751 49.2066C109.372 48.812 109.183 48.2697 109.183 47.5797C109.183 46.8714 109.359 46.3147 109.712 45.9096C110.065 45.5046 110.549 45.302 111.166 45.302C111.739 45.302 112.191 45.4758 112.523 45.8234C112.855 46.171 113.021 46.6493 113.021 47.2582V47.7561H110.131C110.144 48.1769 110.258 48.501 110.472 48.7283C110.687 48.9531 110.989 49.0655 111.378 49.0655C111.634 49.0655 111.872 49.042 112.091 48.9949C112.314 48.9453 112.551 48.8642 112.805 48.7519V49.5006C112.58 49.6078 112.353 49.6836 112.123 49.728C111.893 49.7724 111.63 49.7947 111.335 49.7947ZM111.166 45.9998C110.874 45.9998 110.638 46.0926 110.461 46.2782C110.286 46.4637 110.181 46.7342 110.147 47.0897H112.115C112.11 46.7316 112.024 46.4611 111.856 46.2782C111.689 46.0926 111.459 45.9998 111.166 45.9998Z" fill="black"></path><path d="M107.214 49.7947C106.558 49.7947 106.059 49.6039 105.717 49.2223C105.377 48.8381 105.207 48.288 105.207 47.5719C105.207 46.8427 105.385 46.2821 105.74 45.89C106.098 45.498 106.614 45.302 107.289 45.302C107.746 45.302 108.158 45.3869 108.524 45.5568L108.245 46.2978C107.856 46.1462 107.534 46.0704 107.281 46.0704C106.531 46.0704 106.156 46.5683 106.156 47.564C106.156 48.0501 106.249 48.416 106.434 48.6617C106.622 48.9047 106.897 49.0263 107.257 49.0263C107.668 49.0263 108.056 48.9244 108.422 48.7205V49.5242C108.257 49.6209 108.081 49.6901 107.892 49.7319C107.707 49.7737 107.481 49.7947 107.214 49.7947Z" fill="black"></path><path d="M104.185 49.7162H103.259V47.0505C103.259 46.7159 103.191 46.4663 103.056 46.3017C102.922 46.137 102.709 46.0547 102.417 46.0547C102.027 46.0547 101.742 46.1697 101.562 46.3997C101.382 46.6297 101.291 47.0152 101.291 47.5562V49.7162H100.37V45.3804H101.091L101.221 45.9488H101.268C101.399 45.7424 101.584 45.583 101.825 45.4706C102.065 45.3582 102.332 45.302 102.624 45.302C103.664 45.302 104.185 45.8312 104.185 46.8897V49.7162Z" fill="black"></path><path d="M97.6376 49.7947C96.9633 49.7947 96.4354 49.5986 96.0538 49.2066C95.6748 48.812 95.4854 48.2697 95.4854 47.5797C95.4854 46.8714 95.6618 46.3147 96.0146 45.9096C96.3674 45.5046 96.8522 45.302 97.469 45.302C98.0414 45.302 98.4935 45.4758 98.8254 45.8234C99.1574 46.171 99.3233 46.6493 99.3233 47.2582V47.7561H96.4341C96.4471 48.1769 96.5608 48.501 96.7751 48.7283C96.9894 48.9531 97.2913 49.0655 97.6807 49.0655C97.9368 49.0655 98.1747 49.042 98.3942 48.9949C98.6164 48.9453 98.8542 48.8642 99.1077 48.7519V49.5006C98.8829 49.6078 98.6556 49.6836 98.4256 49.728C98.1956 49.7724 97.9329 49.7947 97.6376 49.7947ZM97.469 45.9998C97.1763 45.9998 96.9411 46.0926 96.7634 46.2782C96.5883 46.4637 96.4837 46.7342 96.4497 47.0897H98.4177C98.4125 46.7316 98.3263 46.4611 98.159 46.2782C97.9917 46.0926 97.7617 45.9998 97.469 45.9998Z" fill="black"></path><path d="M94.4224 49.7163H93.5012V45.3805H94.4224V49.7163ZM93.4463 44.2318C93.4463 44.0672 93.4907 43.9404 93.5796 43.8516C93.6711 43.7627 93.8004 43.7183 93.9677 43.7183C94.1297 43.7183 94.2552 43.7627 94.344 43.8516C94.4355 43.9404 94.4812 44.0672 94.4812 44.2318C94.4812 44.3886 94.4355 44.5128 94.344 44.6042C94.2552 44.6931 94.1297 44.7375 93.9677 44.7375C93.8004 44.7375 93.6711 44.6931 93.5796 44.6042C93.4907 44.5128 93.4463 44.3886 93.4463 44.2318Z" fill="black"></path><path d="M91.2748 49.7947C90.6188 49.7947 90.1196 49.6039 89.7772 49.2223C89.4375 48.8381 89.2676 48.288 89.2676 47.5719C89.2676 46.8427 89.4453 46.2821 89.8007 45.89C90.1588 45.498 90.675 45.302 91.3493 45.302C91.8066 45.302 92.2183 45.3869 92.5841 45.5568L92.3058 46.2978C91.9164 46.1462 91.5949 46.0704 91.3414 46.0704C90.5913 46.0704 90.2163 46.5683 90.2163 47.564C90.2163 48.0501 90.3091 48.416 90.4946 48.6617C90.6828 48.9047 90.9572 49.0263 91.3179 49.0263C91.7282 49.0263 92.1163 48.9244 92.4822 48.7205V49.5242C92.3176 49.6209 92.1412 49.6901 91.953 49.7319C91.7674 49.7737 91.5413 49.7947 91.2748 49.7947Z" fill="black"></path><path d="M88.5151 48.1598C88.5151 48.6694 88.3308 49.0693 87.9623 49.3594C87.5938 49.6495 87.0855 49.7945 86.4373 49.7945C85.7892 49.7945 85.2586 49.6939 84.8457 49.4927V48.6067C85.1071 48.7295 85.3841 48.8262 85.6768 48.8968C85.9721 48.9674 86.2466 49.0026 86.5001 49.0026C86.8712 49.0026 87.1443 48.9321 87.3194 48.7909C87.4971 48.6498 87.586 48.4603 87.586 48.2225C87.586 48.0082 87.505 47.8266 87.3429 47.6776C87.1809 47.5286 86.8464 47.3522 86.3393 47.1483C85.8166 46.9366 85.4481 46.6949 85.2338 46.4231C85.0195 46.1513 84.9123 45.8246 84.9123 45.443C84.9123 44.9647 85.0822 44.5884 85.422 44.314C85.7617 44.0396 86.2178 43.9023 86.7902 43.9023C87.339 43.9023 87.8852 44.0226 88.4288 44.263L88.1309 45.0275C87.6213 44.8132 87.1665 44.706 86.7666 44.706C86.4635 44.706 86.2335 44.7726 86.0767 44.9059C85.9199 45.0366 85.8415 45.2104 85.8415 45.4273C85.8415 45.5763 85.8728 45.7044 85.9355 45.8115C85.9983 45.9161 86.1015 46.0154 86.2452 46.1095C86.389 46.2036 86.6477 46.3277 87.0215 46.4819C87.4422 46.657 87.7506 46.8203 87.9467 46.9719C88.1427 47.1235 88.2864 47.2947 88.3779 47.4855C88.4694 47.6763 88.5151 47.901 88.5151 48.1598Z" fill="black"></path><path d="M81.7054 49.7162H80.7842V43.6162H81.7054V49.7162Z" fill="black"></path><path d="M78.8399 49.7162L78.6557 49.1125H78.6243C78.4152 49.3765 78.2048 49.5568 77.9931 49.6535C77.7814 49.7476 77.5096 49.7947 77.1777 49.7947C76.7517 49.7947 76.4185 49.6797 76.178 49.4497C75.9402 49.2197 75.8213 48.8943 75.8213 48.4735C75.8213 48.0266 75.9872 47.6895 76.3192 47.4621C76.6511 47.2347 77.1568 47.1106 77.8363 47.0897L78.5851 47.0661V46.8348C78.5851 46.5578 78.5198 46.3513 78.3891 46.2154C78.261 46.0769 78.0611 46.0077 77.7893 46.0077C77.5671 46.0077 77.3541 46.0403 77.1503 46.1057C76.9464 46.171 76.7504 46.2481 76.5622 46.337L76.2643 45.6783C76.4995 45.5555 76.7569 45.4627 77.0366 45.4C77.3162 45.3347 77.5802 45.302 77.8285 45.302C78.3799 45.302 78.7955 45.4222 79.0751 45.6627C79.3574 45.9031 79.4985 46.2808 79.4985 46.7956V49.7162H78.8399ZM77.4678 49.089C77.8023 49.089 78.0702 48.9962 78.2715 48.8107C78.4753 48.6225 78.5773 48.3598 78.5773 48.0227V47.6463L78.0206 47.6699C77.5867 47.6855 77.2705 47.7587 77.0719 47.8894C76.8758 48.0175 76.7778 48.2148 76.7778 48.4814C76.7778 48.6748 76.8353 48.825 76.9503 48.9322C77.0653 49.0367 77.2378 49.089 77.4678 49.089Z" fill="black"></path><path d="M74.5818 49.0498C74.8066 49.0498 75.0313 49.0145 75.2561 48.944V49.6378C75.1542 49.6823 75.0222 49.7189 74.8602 49.7476C74.7007 49.779 74.5348 49.7947 74.3623 49.7947C73.4894 49.7947 73.0529 49.3347 73.0529 48.4147V46.0782H72.4609V45.6705L73.096 45.3334L73.4096 44.416H73.9781V45.3804H75.213V46.0782H73.9781V48.399C73.9781 48.6212 74.033 48.7858 74.1427 48.893C74.2551 48.9975 74.4015 49.0498 74.5818 49.0498Z" fill="black"></path><path d="M71.6461 49.7163H70.7248V45.3805H71.6461V49.7163ZM70.6699 44.2318C70.6699 44.0672 70.7144 43.9404 70.8032 43.8516C70.8947 43.7627 71.0241 43.7183 71.1913 43.7183C71.3534 43.7183 71.4788 43.7627 71.5677 43.8516C71.6591 43.9404 71.7049 44.0672 71.7049 44.2318C71.7049 44.3886 71.6591 44.5128 71.5677 44.6042C71.4788 44.6931 71.3534 44.7375 71.1913 44.7375C71.0241 44.7375 70.8947 44.6931 70.8032 44.6042C70.7144 44.5128 70.6699 44.3886 70.6699 44.2318Z" fill="black"></path><path d="M69.9165 45.3804V45.8861L69.1756 46.0233C69.2435 46.1148 69.2997 46.2272 69.3442 46.3605C69.3886 46.4938 69.4108 46.6349 69.4108 46.7839C69.4108 47.2308 69.2566 47.5823 68.9482 47.8384C68.6398 48.0946 68.2151 48.2226 67.6741 48.2226C67.5356 48.2226 67.4101 48.2122 67.2978 48.1913C67.0991 48.3141 66.9998 48.4578 66.9998 48.6225C66.9998 48.7218 67.0456 48.7963 67.137 48.8459C67.2311 48.8956 67.4023 48.9204 67.6506 48.9204H68.4072C68.8855 48.9204 69.2488 49.0224 69.497 49.2262C69.7453 49.4301 69.8695 49.7241 69.8695 50.1083C69.8695 50.5996 69.6669 50.9786 69.2618 51.2452C68.8567 51.5117 68.2713 51.645 67.5055 51.645C66.9149 51.645 66.464 51.5405 66.153 51.3314C65.842 51.1223 65.6865 50.8244 65.6865 50.4376C65.6865 50.171 65.7702 49.9462 65.9374 49.7633C66.1073 49.583 66.3438 49.4575 66.647 49.3869C66.5242 49.3347 66.4222 49.251 66.3412 49.136C66.2628 49.0184 66.2236 48.8956 66.2236 48.7675C66.2236 48.6055 66.2693 48.4683 66.3608 48.3559C66.4523 48.2435 66.5882 48.1325 66.7685 48.0227C66.5438 47.926 66.3608 47.7692 66.2197 47.5522C66.0812 47.3327 66.0119 47.0766 66.0119 46.7839C66.0119 46.3134 66.1596 45.9489 66.4549 45.6901C66.7528 45.4314 67.1762 45.302 67.7251 45.302C67.8479 45.302 67.976 45.3111 68.1093 45.3294C68.2452 45.3451 68.3471 45.3621 68.415 45.3804H69.9165ZM66.5098 50.3905C66.5098 50.5892 66.5986 50.7421 66.7764 50.8492C66.9567 50.9564 67.2089 51.0099 67.533 51.0099C68.0348 51.0099 68.4085 50.9381 68.6542 50.7943C68.8999 50.6506 69.0227 50.4598 69.0227 50.222C69.0227 50.0338 68.9547 49.8992 68.8188 49.8182C68.6855 49.7398 68.436 49.7006 68.0701 49.7006H67.3722C67.1083 49.7006 66.8979 49.762 66.7411 49.8848C66.5869 50.0103 66.5098 50.1788 66.5098 50.3905ZM66.9057 46.7839C66.9057 47.0557 66.975 47.2648 67.1135 47.4111C67.2546 47.5575 67.4559 47.6307 67.7172 47.6307C68.2504 47.6307 68.517 47.3458 68.517 46.776C68.517 46.4938 68.4503 46.2768 68.317 46.1253C68.1864 45.9711 67.9864 45.894 67.7172 45.894C67.4507 45.894 67.2481 45.9698 67.1096 46.1213C66.9737 46.2729 66.9057 46.4938 66.9057 46.7839Z" fill="black"></path><path d="M64.9342 49.7163H64.0129V45.3805H64.9342V49.7163ZM63.958 44.2318C63.958 44.0672 64.0024 43.9404 64.0913 43.8516C64.1828 43.7627 64.3121 43.7183 64.4794 43.7183C64.6414 43.7183 64.7669 43.7627 64.8558 43.8516C64.9472 43.9404 64.993 44.0672 64.993 44.2318C64.993 44.3886 64.9472 44.5128 64.8558 44.6042C64.7669 44.6931 64.6414 44.7375 64.4794 44.7375C64.3121 44.7375 64.1828 44.6931 64.0913 44.6042C64.0024 44.5128 63.958 44.3886 63.958 44.2318Z" fill="black"></path><path d="M62.8761 46.7957C62.8761 47.7418 62.6134 48.4658 62.0881 48.9676C61.5628 49.4667 60.8062 49.7163 59.8182 49.7163H58.2148V43.9849H59.9868C60.8989 43.9849 61.6085 44.2305 62.1155 44.7219C62.6226 45.2132 62.8761 45.9045 62.8761 46.7957ZM61.8882 46.8271C61.8882 45.455 61.2465 44.7689 59.9633 44.7689H59.1518V48.9284H59.8182C61.1982 48.9284 61.8882 48.2279 61.8882 46.8271Z" fill="black"></path><path d="M54.6827 49.7162L53.9692 47.8932H51.6719L50.9663 49.7162H50.292L52.5579 43.9612H53.1185L55.3727 49.7162H54.6827ZM53.7614 47.2934L53.095 45.5175C53.0088 45.2928 52.9199 45.017 52.8284 44.6904C52.7709 44.9413 52.6886 45.217 52.5814 45.5175L51.9072 47.2934H53.7614Z" fill="black"></path><g clip-path="url(#clip0_347_4861)"><path d="M11.3681 4.67344C11.0155 4.68552 10.6628 4.80004 10.3559 5.02333C9.54016 5.61929 9.35601 6.76811 9.95043 7.59105C10.5454 8.41145 11.6903 8.5946 12.507 7.9966C13.3247 7.40268 13.5096 6.2516 12.9141 5.42968C12.5426 4.91661 11.9557 4.65329 11.3681 4.67344ZM34.9465 4.67344C34.3591 4.65329 33.7731 4.91661 33.4021 5.42968C32.8061 6.2511 32.9877 7.40065 33.8053 7.9966C34.6229 8.59256 35.7681 8.41247 36.3642 7.59105C36.9577 6.76811 36.7761 5.61929 35.9595 5.02333C35.6519 4.80004 35.299 4.68552 34.9465 4.67344ZM30.9089 6.10958C30.3085 6.06614 29.7126 6.3803 29.4216 6.9517C29.0352 7.71408 29.3361 8.64842 30.0972 9.03673C30.8583 9.42759 31.7895 9.12414 32.1722 8.35922C32.5599 7.59582 32.2596 6.66308 31.4998 6.27578C31.3098 6.17832 31.1091 6.12406 30.9089 6.10958ZM27.3806 8.03318C26.8808 8.07629 26.4315 8.41263 26.2671 8.92143C26.0477 9.59882 26.4174 10.3288 27.0931 10.5492C27.7693 10.7691 28.4977 10.398 28.7159 9.72061C28.9356 9.04119 28.5637 8.31138 27.8891 8.09203C27.72 8.03681 27.5472 8.01882 27.3806 8.03318ZM11.2564 9.21327C10.861 9.21346 10.4657 9.36557 10.1643 9.66813C9.56036 10.2738 9.56095 11.2552 10.1635 11.8613C10.7678 12.4649 11.7441 12.4654 12.3494 11.8613C12.9493 11.2552 12.9519 10.2732 12.3494 9.66813C12.0477 9.36481 11.6519 9.21308 11.2564 9.21327ZM24.9365 10.0474C24.4386 10.0691 24.0085 10.44 23.9283 10.9548C23.8349 11.5406 24.234 12.0939 24.8161 12.1865C25.4008 12.2797 25.9525 11.8779 26.0429 11.2911C26.138 10.7028 25.7374 10.1523 25.1527 10.0602C25.0796 10.0484 25.0077 10.0444 24.9365 10.0474ZM23.1577 12.1221C22.6683 12.1221 22.2699 12.5214 22.2699 13.012C22.2699 13.5046 22.6683 13.9018 23.1577 13.9018C23.6484 13.9018 24.0455 13.5046 24.0455 13.012C24.0455 12.5214 23.6484 12.1221 23.1577 12.1221ZM11.856 13.1448C11.4431 13.1309 11.0303 13.3165 10.7701 13.6791C10.3514 14.2537 10.4804 15.062 11.0537 15.4803C11.6288 15.9007 12.4353 15.7711 12.8523 15.1948C13.2691 14.618 13.1422 13.8111 12.5664 13.3897C12.3516 13.233 12.1037 13.1531 11.856 13.1448ZM21.9483 14.1006C21.8999 14.0984 21.8508 14.1013 21.801 14.1094C21.401 14.173 21.1294 14.5475 21.1944 14.9475C21.2557 15.3471 21.6274 15.6176 22.0283 15.5566C22.4267 15.4928 22.6958 15.1173 22.6342 14.7169C22.5798 14.3695 22.2874 14.1156 21.9483 14.1006ZM12.8198 16.3121C12.4029 16.2823 11.989 16.4993 11.7863 16.8973C11.5206 17.427 11.7293 18.0753 12.2559 18.3438C12.786 18.617 13.4291 18.4047 13.6973 17.8762C13.9667 17.3441 13.7571 16.696 13.2301 16.4266C13.098 16.3593 12.9588 16.322 12.8198 16.3121ZM30.1866 18.3605C30.0925 18.3672 29.998 18.3925 29.9087 18.4385C29.5483 18.6216 29.4057 19.0633 29.5903 19.4245C29.7734 19.7812 30.2141 19.9247 30.5684 19.7434C30.9303 19.5595 31.0746 19.1196 30.8876 18.7573C30.7503 18.4893 30.4692 18.3406 30.1866 18.3605ZM13.893 18.8281C13.5488 18.8586 13.238 19.0906 13.1263 19.4404C12.9743 19.9068 13.2287 20.4094 13.6966 20.5601C14.1609 20.7132 14.6614 20.4593 14.8109 19.9915C14.963 19.5255 14.7079 19.02 14.2422 18.8679C14.1263 18.8301 14.0077 18.818 13.893 18.8281ZM32.4224 18.8281C32.3075 18.8179 32.1879 18.8301 32.0716 18.8679C31.6078 19.02 31.3529 19.5255 31.5029 19.9915C31.6555 20.4593 32.1569 20.7132 32.6212 20.5601C33.0865 20.4094 33.3393 19.9068 33.1867 19.4404C33.0776 19.0906 32.7674 18.8586 32.4224 18.8281ZM34.7517 19.8014C34.6806 19.7982 34.6077 19.8026 34.5347 19.8142C33.9477 19.9072 33.5488 20.4599 33.6421 21.0467C33.7339 21.6324 34.2843 22.0357 34.8697 21.9413C35.4541 21.8481 35.8527 21.2972 35.7599 20.7088C35.6783 20.1956 35.2493 19.8242 34.7517 19.8014ZM15.2734 20.7334C14.9371 20.7508 14.6442 21.0018 14.5868 21.3497C14.5234 21.7523 14.7955 22.1248 15.1958 22.1887C15.5918 22.2501 15.9632 21.9777 16.0266 21.5827C16.0906 21.1807 15.8213 20.8044 15.4199 20.7406C15.3707 20.7331 15.3215 20.7309 15.2734 20.7334ZM37.1823 21.4221C36.4737 21.4221 35.8961 21.9996 35.8961 22.7135C35.8961 23.4286 36.4737 24.0057 37.1823 24.0057C37.8945 24.0057 38.4685 23.4286 38.4685 22.7135C38.4685 21.9996 37.8945 21.4221 37.1823 21.4221ZM39.7112 23.8077C38.9925 23.8402 38.3705 24.3735 38.2539 25.1142C38.1221 25.9599 38.6974 26.7551 39.5409 26.8891C40.3823 27.0237 41.1722 26.4472 41.307 25.6017C41.4388 24.7548 40.8664 23.9591 40.024 23.8252C39.9186 23.8085 39.8138 23.803 39.7112 23.8077ZM4.34232 27.0712C4.10556 27.051 3.86168 27.0769 3.62161 27.1563C2.6591 27.4682 2.13326 28.5044 2.4455 29.4711C2.75774 30.4349 3.79089 30.9641 4.7502 30.6512C5.7121 30.3361 6.23797 29.3016 5.9271 28.3348C5.69247 27.6114 5.05263 27.1319 4.34232 27.0712ZM41.9723 27.0712C41.2628 27.1319 40.624 27.6114 40.3875 28.3348C40.0778 29.3016 40.6011 30.3361 41.5636 30.6512C42.5242 30.9641 43.5556 30.4349 43.8683 29.4711C44.1816 28.5044 43.6576 27.4682 42.693 27.1563C42.4531 27.0769 42.2088 27.051 41.9723 27.0712ZM28.7761 27.6239C28.5899 27.6239 28.4043 27.6954 28.2621 27.8386C27.9756 28.1238 27.9752 28.5903 28.2597 28.8747C28.548 29.16 29.0074 29.16 29.2917 28.8747C29.5768 28.5883 29.5768 28.1251 29.2917 27.8386C29.1488 27.6954 28.9623 27.6239 28.7761 27.6239ZM8.05044 28.839C7.85012 28.8528 7.64969 28.9062 7.45961 29.0028C6.6999 29.3918 6.39734 30.3262 6.78404 31.0902C7.17114 31.853 8.10131 32.1564 8.86223 31.7685C9.62158 31.3787 9.92551 30.4447 9.5378 29.6827C9.24793 29.1113 8.65138 28.7974 8.05044 28.839ZM19.6017 29.0934C19.3169 29.074 19.0366 29.222 18.9 29.491C18.7158 29.8532 18.8586 30.2924 19.2183 30.4763C19.5773 30.6584 20.0166 30.5172 20.1988 30.1566C20.3843 29.796 20.2396 29.356 19.8828 29.1706C19.792 29.1249 19.6966 29.0999 19.6017 29.0934ZM17.51 29.6715C17.2256 29.662 16.9413 29.7905 16.7616 30.0397C16.4735 30.4371 16.5604 30.9932 16.9564 31.2818C17.3518 31.5703 17.91 31.4832 18.1951 31.0838C18.4818 30.6884 18.3937 30.1308 17.9995 29.8409C17.851 29.7326 17.6806 29.6772 17.51 29.6715ZM28.8054 29.6715C28.6347 29.6773 28.4645 29.7327 28.316 29.8409C27.92 30.1308 27.8324 30.6884 28.1195 31.0838C28.4051 31.4832 28.9622 31.5701 29.3566 31.2826C29.7527 30.9929 29.8431 30.4355 29.5531 30.0397C29.3743 29.7905 29.0899 29.662 28.8054 29.6715ZM11.7657 29.6994C11.5177 29.7074 11.2694 29.7869 11.0537 29.9435C10.4804 30.3642 10.3518 31.1735 10.7701 31.7502C11.1863 32.3299 11.9936 32.4569 12.5664 32.0357C13.1422 31.6152 13.2701 30.8085 12.8523 30.233C12.5917 29.8715 12.1789 29.686 11.7657 29.6994ZM14.8933 29.9355C14.6184 29.9355 14.3436 30.0402 14.1337 30.2505H14.1329C13.7158 30.6705 13.7158 31.3522 14.1329 31.7725C14.5527 32.1943 15.233 32.1929 15.6512 31.7725C16.0709 31.3522 16.0709 30.6701 15.6528 30.2505C15.4429 30.0406 15.1681 29.9356 14.8933 29.9355ZM28.3872 32.0961C28.2481 32.1061 28.1086 32.1429 27.9762 32.2106C27.4469 32.48 27.2408 33.1283 27.5057 33.6587C27.777 34.1889 28.4235 34.3994 28.9511 34.1287C29.4763 33.8579 29.6887 33.212 29.4168 32.6806C29.2171 32.284 28.8045 32.0662 28.3872 32.0961ZM27.6008 34.8189C27.434 34.8044 27.2622 34.8221 27.0931 34.877C26.4174 35.0978 26.0477 35.8275 26.2671 36.5063C26.4862 37.1827 27.2127 37.5568 27.8891 37.3357C28.5637 37.1139 28.9356 36.3858 28.7159 35.7064C28.5523 35.1976 28.1012 34.8623 27.6008 34.8189ZM25.8616 37.8542C25.7594 37.8495 25.6551 37.855 25.5503 37.8717C24.7071 38.0071 24.132 38.8001 24.2657 39.6474C24.3988 40.4933 25.1888 41.0702 26.0318 40.9348C26.8743 40.8021 27.4469 40.008 27.3133 39.1631C27.1975 38.4218 26.5767 37.8868 25.8616 37.8542ZM23.1577 40.9038C22.1465 40.9038 21.3274 41.7289 21.3274 42.7431C21.3274 43.7574 22.1465 44.5809 23.1577 44.5809C24.1701 44.5809 24.988 43.7574 24.988 42.7431C24.988 41.7289 24.1701 40.9038 23.1577 40.9038Z" fill="#505F69"></path><path d="M23.1577 0.847656C22.1465 0.847656 21.3274 1.67057 21.3274 2.68538C21.3274 3.69968 22.1465 4.5231 23.1577 4.5231C24.1701 4.5231 24.988 3.69968 24.988 2.68538C24.988 1.67057 24.1701 0.847656 23.1577 0.847656ZM20.5956 4.473C20.4932 4.46847 20.3888 4.47443 20.2836 4.49129C19.4399 4.62667 18.8637 5.41774 18.9989 6.2646C19.1326 7.11146 19.9224 7.68951 20.7667 7.55363C21.6084 7.4208 22.1826 6.62362 22.0513 5.78032C21.9309 5.03932 21.3121 4.5047 20.5956 4.473ZM18.9332 8.03314C18.7666 8.01875 18.5946 8.03689 18.4255 8.09198C17.7498 8.31133 17.3801 9.04114 17.5987 9.72057C17.8185 10.398 18.5445 10.769 19.2207 10.5492C19.8943 10.3288 20.2681 9.59877 20.0483 8.92138C19.883 8.41258 19.433 8.07632 18.9332 8.03314ZM17.7745 11.1837C17.6354 11.194 17.4958 11.2314 17.3635 11.2991C16.8378 11.5678 16.6259 12.2157 16.8938 12.7439C17.1635 13.2758 17.809 13.4851 18.3376 13.2179C18.8637 12.9451 19.0775 12.2972 18.8089 11.7674C18.6054 11.3693 18.1918 11.1531 17.7745 11.1837ZM34.4602 13.1447C34.2125 13.1531 33.965 13.233 33.749 13.3896C33.1712 13.808 33.0439 14.618 33.4631 15.1948C33.8823 15.7711 34.6871 15.9011 35.2594 15.4826C35.8357 15.0608 35.9629 14.2537 35.5453 13.6791C35.2852 13.3165 34.8731 13.1308 34.4602 13.1447ZM31.4214 13.3388C31.1467 13.3389 30.8728 13.4445 30.6642 13.6552C30.2433 14.0736 30.2433 14.7578 30.6642 15.1773C31.0829 15.5979 31.7604 15.5979 32.1801 15.1773C32.5978 14.7578 32.5983 14.0756 32.1817 13.6552C31.9713 13.444 31.696 13.3386 31.4214 13.3388ZM38.0432 13.4938C37.8433 13.5079 37.6431 13.5621 37.4532 13.6592C36.6924 14.047 36.3908 14.9823 36.776 15.7466C37.1628 16.5087 38.0956 16.8114 38.8534 16.4226C39.6148 16.0319 39.9175 15.0992 39.5298 14.3383C39.2378 13.7662 38.6429 13.4515 38.0432 13.4938ZM17.4466 13.9757C17.2755 13.9816 17.1047 14.0369 16.9564 14.1451C16.5604 14.4331 16.4735 14.9926 16.7616 15.3896C17.0491 15.7852 17.6036 15.8758 17.9995 15.586C18.3937 15.2975 18.4818 14.7411 18.1951 14.3431C18.0169 14.0934 17.7318 13.9659 17.4466 13.9757ZM28.8672 13.9757C28.5827 13.9659 28.2983 14.0934 28.1203 14.3431C27.8298 14.7411 27.92 15.2976 28.316 15.5852C28.712 15.8759 29.267 15.7852 29.553 15.3896C29.8431 14.9926 29.7527 14.4321 29.3566 14.1451C29.2087 14.0369 29.0379 13.9816 28.8672 13.9757ZM4.02949 14.693C3.31913 14.7558 2.67968 15.2335 2.4455 15.9566C2.13326 16.9233 2.6591 17.9595 3.62161 18.2722C4.58189 18.5875 5.61466 18.0585 5.9271 17.0929C6.23837 16.1264 5.71188 15.092 4.75099 14.7749C4.51091 14.6973 4.26627 14.6721 4.02949 14.693ZM42.2843 14.693C42.0478 14.6721 41.8031 14.6973 41.5636 14.7749C40.6011 15.0909 40.0748 16.1264 40.3875 17.0929C40.7028 18.0585 41.7335 18.5875 42.693 18.2722C43.6576 17.9595 44.1816 16.9233 43.8683 15.9566C43.6338 15.2335 42.994 14.7558 42.2843 14.693ZM26.8167 14.8719C26.5342 14.8517 26.252 15.0004 26.1158 15.2695C25.9317 15.6319 26.0752 16.0717 26.435 16.2556C26.7933 16.4394 27.2302 16.2949 27.4147 15.9343C27.5988 15.5753 27.4562 15.1338 27.0939 14.9498C27.0051 14.9039 26.9109 14.8786 26.8167 14.8719ZM17.5377 16.3375C17.3508 16.3375 17.1633 16.4091 17.0198 16.5522C16.736 16.8401 16.7362 17.3007 17.0213 17.5891C17.3071 17.8736 17.7686 17.8756 18.0541 17.5891C18.3382 17.3039 18.3388 16.8381 18.0541 16.5522C17.9113 16.4091 17.7246 16.3375 17.5377 16.3375ZM6.46407 18.5203C5.7452 18.5529 5.12602 19.0857 5.00681 19.826C4.87578 20.6736 5.44955 21.467 6.29142 21.6009C7.1339 21.7364 7.9255 21.1592 8.05836 20.3135C8.19177 19.4676 7.61939 18.6724 6.77691 18.5378C6.6713 18.5212 6.56677 18.5157 6.46407 18.5203ZM9.1323 21.422C8.4209 21.422 7.84373 21.9995 7.84373 22.7134C7.84571 23.4285 8.4209 24.0056 9.1323 24.0056C9.84253 24.0056 10.4193 23.4285 10.4193 22.7134C10.4193 21.9995 9.84253 21.422 9.1323 21.422ZM30.9739 23.2311C30.636 23.2446 30.3435 23.4979 30.288 23.8458C30.2247 24.2472 30.4943 24.6225 30.8923 24.6863C31.2892 24.7468 31.663 24.4772 31.7279 24.0772C31.7922 23.6747 31.5221 23.3013 31.1212 23.2407C31.0716 23.2324 31.0222 23.2292 30.9739 23.2311ZM11.6611 23.4745C11.5897 23.4712 11.5167 23.4747 11.4433 23.4864C10.8612 23.5782 10.4619 24.1297 10.5547 24.7182C10.6458 25.3051 11.1952 25.7052 11.7799 25.6128C12.3664 25.5203 12.766 24.9687 12.6717 24.381C12.5917 23.8679 12.1609 23.4968 11.6611 23.4745ZM14.0458 24.8247C13.9313 24.8147 13.8126 24.8268 13.6966 24.8645C13.2287 25.0166 12.9743 25.5187 13.1263 25.9873C13.2752 26.4549 13.7763 26.7094 14.2422 26.5575C14.7079 26.4068 14.9622 25.901 14.8125 25.437C14.6986 25.0857 14.3894 24.8548 14.0458 24.8247ZM32.2712 24.8247C31.9266 24.8548 31.615 25.0857 31.5014 25.437C31.3523 25.901 31.6078 26.4068 32.0716 26.5575C32.5369 26.7094 33.0392 26.4549 33.1867 25.9873C33.3393 25.5187 33.0865 25.0166 32.6212 24.8645C32.5052 24.8268 32.386 24.8147 32.2712 24.8247ZM16.025 25.6056C15.9312 25.6121 15.8373 25.6374 15.7486 25.6827C15.3849 25.8667 15.2425 26.3064 15.4286 26.6696C15.6094 27.0288 16.0478 27.1708 16.4052 26.9885C16.7655 26.8045 16.9077 26.3648 16.7243 26.0048C16.5867 25.7349 16.3064 25.5862 16.025 25.6056ZM33.6484 26.967C33.2322 26.9372 32.8187 27.156 32.6157 27.5523C32.345 28.0825 32.5574 28.7318 33.0845 29.0011C33.6122 29.2697 34.2599 29.06 34.5276 28.5304C34.7977 28.0006 34.5871 27.3513 34.0579 27.0815C33.9262 27.0137 33.7872 26.9769 33.6484 26.967ZM34.5497 29.6993C34.1375 29.6859 33.7248 29.8715 33.4615 30.2329C33.0434 30.8084 33.1712 31.6171 33.749 32.0356C34.3248 32.4569 35.1291 32.3299 35.5453 31.7502C35.9629 31.1734 35.8357 30.3641 35.2594 29.9435C35.0448 29.7868 34.7971 29.7074 34.5497 29.6993ZM24.4336 29.8631C24.3849 29.8609 24.3349 29.8633 24.2847 29.8711C23.8861 29.9349 23.6175 30.3102 23.6804 30.7108C23.7442 31.1092 24.1158 31.3828 24.5144 31.3192C24.9157 31.2549 25.1834 30.8794 25.1195 30.4818C25.0668 30.1323 24.7749 29.8791 24.4336 29.8631ZM23.1577 31.5251C22.6683 31.5251 22.2699 31.9223 22.2699 32.415C22.2699 32.9066 22.6683 33.3048 23.1577 33.3048C23.6484 33.3048 24.0455 32.9066 24.0455 32.415C24.0455 31.9223 23.6484 31.5251 23.1577 31.5251ZM35.059 33.1131C34.6637 33.1136 34.2684 33.2646 33.966 33.5664C33.3623 34.1721 33.3623 35.1538 33.966 35.7596C34.5707 36.3651 35.5452 36.3635 36.1519 35.7596C36.7556 35.1538 36.7556 34.1721 36.1519 33.5664C35.8498 33.2628 35.4543 33.1127 35.059 33.1131ZM21.2807 33.2285C20.7824 33.2514 20.3504 33.6214 20.2693 34.135C20.1762 34.7216 20.575 35.2749 21.1611 35.3676C21.7458 35.4602 22.2944 35.0616 22.3879 34.4714C22.4835 33.8855 22.0816 33.3337 21.4969 33.2404C21.4238 33.2289 21.3519 33.2252 21.2807 33.2285ZM18.713 34.8189C18.2133 34.8619 17.7635 35.1976 17.5987 35.7063C17.3801 36.3864 17.7488 37.1138 18.4255 37.3357C19.1031 37.5568 19.8279 37.1826 20.0483 36.5063C20.2681 35.8274 19.8943 35.0976 19.2207 34.8777C19.0517 34.8226 18.8796 34.8045 18.713 34.8189ZM15.6266 36.224C15.0265 36.1814 14.4309 36.4951 14.1393 37.0669C13.7535 37.8299 14.0557 38.7621 14.8148 39.1504C15.5752 39.5398 16.5071 39.2368 16.8922 38.476C17.2789 37.7126 16.9784 36.778 16.2167 36.3886C16.0267 36.2915 15.8267 36.2382 15.6266 36.224ZM11.4956 37.0796C10.9086 37.0595 10.3223 37.3222 9.95043 37.8359C9.35601 38.6563 9.54016 39.8068 10.3559 40.4028C11.1743 40.9988 12.3181 40.8189 12.9141 39.9965C13.5096 39.1754 13.3247 38.0247 12.507 37.4287C12.2007 37.2052 11.8478 37.0917 11.4956 37.0796ZM34.8166 37.0796C34.464 37.0918 34.1119 37.2058 33.8053 37.4287C32.9877 38.0247 32.8061 39.1754 33.4021 39.9965C33.9972 40.8189 35.1394 41.0008 35.9595 40.4028C36.7761 39.8078 36.9577 38.6563 36.3642 37.8359C35.992 37.3222 35.4043 37.0594 34.8166 37.0796Z" fill="#DAD830"></path><path d="M29.164 1.83291C28.4531 1.89326 27.8145 2.37091 27.5824 3.09728C27.2695 4.06171 27.7943 5.09891 28.7569 5.41292C29.7182 5.72795 30.7505 5.1985 31.0648 4.23204C31.375 3.26863 30.8479 2.23302 29.8863 1.91799C29.6457 1.83898 29.401 1.81279 29.164 1.83291ZM25.7204 4.47299C25.0035 4.50517 24.3827 5.0393 24.2663 5.78031C24.1311 6.62565 24.708 7.42079 25.5485 7.55362C26.3898 7.68747 27.1812 7.1118 27.3171 6.26698C27.4471 5.41808 26.8749 4.62666 26.0325 4.49128C25.9273 4.47455 25.8228 4.46839 25.7204 4.47299ZM23.1583 7.33891C22.4465 7.33891 21.8713 7.91681 21.8713 8.63033C21.8713 9.34589 22.4465 9.92413 23.1583 9.92413C23.8694 9.92413 24.4437 9.34589 24.4437 8.63033C24.4437 7.91681 23.8694 7.33891 23.1583 7.33891ZM7.08402 9.10348C6.49635 9.08405 5.90873 9.34904 5.53725 9.8621C4.94461 10.681 5.12839 11.8315 5.94355 12.4274C6.76129 13.0249 7.9063 12.8425 8.49772 12.0211C9.09528 11.2002 8.91467 10.0514 8.0946 9.45337C7.78907 9.22912 7.43661 9.11513 7.08402 9.10348ZM21.3779 10.0474C21.3067 10.0443 21.2341 10.0483 21.1609 10.0601C20.5778 10.1532 20.1768 10.7048 20.2699 11.2911C20.3626 11.8779 20.913 12.2786 21.4975 12.1865C22.0822 12.0939 22.4799 11.5425 22.3885 10.9547C22.3067 10.4399 21.8765 10.069 21.3779 10.0474ZM20.2485 12.6C20.1339 12.5901 20.0156 12.602 19.8993 12.6398C19.4322 12.7914 19.1781 13.2954 19.3306 13.7626C19.4807 14.2298 19.9814 14.4857 20.4457 14.3335C20.9114 14.1819 21.1681 13.6789 21.0168 13.2107C20.9017 12.8607 20.5924 12.6298 20.2485 12.6ZM8.2728 13.4938C7.67263 13.4515 7.07599 13.7662 6.78464 14.3383C6.39795 15.1022 6.70051 16.0351 7.46021 16.4218C8.22053 16.8134 9.15191 16.5067 9.5384 15.7466C9.92611 14.9838 9.62218 14.0496 8.86283 13.6592C8.67301 13.5621 8.47285 13.5079 8.2728 13.4938ZM19.4977 14.8727C19.4027 14.8797 19.3073 14.9055 19.2166 14.9522C18.8607 15.1353 18.717 15.5752 18.8982 15.9343C19.0833 16.2977 19.5205 16.4409 19.8802 16.2556C20.2382 16.0717 20.3832 15.6303 20.1994 15.2711C20.0633 15.0005 19.7827 14.8516 19.4977 14.8727ZM30.9444 16.122C30.7737 16.1279 30.6027 16.1832 30.4541 16.2913C30.0578 16.5804 29.9689 17.1361 30.2569 17.5343C30.5469 17.9311 31.1008 18.0211 31.4956 17.7323C31.8925 17.4412 31.9796 16.8849 31.6897 16.4894C31.5119 16.2396 31.2288 16.1121 30.9444 16.122ZM33.4954 16.3112C33.3564 16.3212 33.2171 16.3589 33.0852 16.4265C32.5565 16.6947 32.3495 17.344 32.6171 17.8762C32.8867 18.4046 33.5293 18.6155 34.0585 18.3462C34.5877 18.0756 34.7967 17.4269 34.5266 16.8973C34.327 16.4992 33.9125 16.2813 33.4954 16.3112ZM28.7775 16.3383C28.5909 16.3378 28.4051 16.4088 28.2627 16.5522C27.9768 16.8395 27.976 17.304 28.2651 17.5899C28.5469 17.8738 29.008 17.8776 29.2931 17.5899C29.5794 17.3021 29.5794 16.8379 29.2947 16.5546C29.1513 16.4112 28.9641 16.3388 28.7775 16.3383ZM9.70789 17.0746C9.20831 17.1171 8.75913 17.454 8.59593 17.9629C8.37514 18.641 8.74463 19.3688 9.42039 19.5907C10.096 19.8115 10.8234 19.4403 11.0432 18.7628C11.261 18.0831 10.8937 17.3522 10.2156 17.1351C10.0468 17.0794 9.87442 17.0605 9.70789 17.0746ZM36.6071 17.0746C36.4408 17.0605 36.2692 17.0794 36.1003 17.1351C35.4236 17.3522 35.0545 18.0831 35.2734 18.7628C35.4914 19.4403 36.219 19.8115 36.8946 19.5907C37.5693 19.3688 37.9425 18.641 37.7231 17.9629C37.5558 17.454 37.1062 17.1171 36.6071 17.0746ZM39.8535 18.5203C39.7511 18.5156 39.6467 18.5212 39.5415 18.5378C38.6955 18.672 38.1228 19.4676 38.2577 20.3135C38.391 21.1592 39.1809 21.7364 40.0238 21.6009C40.8657 21.467 41.4414 20.6736 41.3076 19.826C41.191 19.0871 40.5706 18.5534 39.8535 18.5203ZM11.5635 19.8014C11.0655 19.8236 10.635 20.1973 10.5553 20.7087C10.4625 21.2972 10.8618 21.848 11.4439 21.9413C12.031 22.0357 12.5809 21.6324 12.6723 21.0467C12.7654 20.4598 12.367 19.9071 11.7805 19.8141C11.7074 19.8023 11.6347 19.7982 11.5635 19.8014ZM43.1078 20.8757C42.0951 20.8757 41.2752 21.6992 41.2752 22.7142C41.2752 23.7289 42.0951 24.5519 43.1078 24.5519C44.114 24.5519 44.9357 23.7293 44.9357 22.7134C44.9357 21.6995 44.114 20.8757 43.1078 20.8757ZM13.4968 21.8228C13.0067 21.8228 12.6082 22.2234 12.6082 22.7134C12.6082 23.2035 13.0067 23.6053 13.4968 23.6025C13.9849 23.6025 14.3822 23.2035 14.3822 22.7134C14.3822 22.2234 13.9849 21.8228 13.4968 21.8228ZM15.3413 23.2319C15.2929 23.2298 15.2431 23.2328 15.1932 23.2407C14.7975 23.3039 14.522 23.6756 14.5874 24.0764C14.6511 24.477 15.0241 24.7474 15.4237 24.6863C15.8191 24.6225 16.0908 24.2471 16.0288 23.8458C15.9733 23.4958 15.6807 23.2468 15.3413 23.2319ZM30.2926 25.604C30.0092 25.5838 29.7259 25.733 29.5885 26.0032C29.4069 26.3618 29.5489 26.8034 29.9077 26.9885C30.2677 27.1723 30.707 27.0297 30.8905 26.6672C31.073 26.31 30.9289 25.8684 30.5706 25.6827C30.4815 25.6366 30.387 25.6107 30.2926 25.604ZM31.0062 27.5268C30.7221 27.5174 30.4382 27.6445 30.2569 27.8918C29.9689 28.2886 30.0578 28.8472 30.4541 29.1363C30.8507 29.4252 31.4053 29.3381 31.6897 28.9383C31.9771 28.5415 31.8925 27.9853 31.4956 27.6954C31.3475 27.587 31.1766 27.5325 31.0062 27.5268ZM21.8816 29.8623C21.5403 29.8768 21.2486 30.1299 21.1918 30.4818C21.1314 30.8794 21.403 31.2523 21.8016 31.3192C22.2002 31.3828 22.5724 31.1094 22.6372 30.7084C22.698 30.3104 22.4244 29.9375 22.0297 29.8711C21.9795 29.863 21.9304 29.8603 21.8816 29.8623ZM31.4228 29.9347C31.148 29.9347 30.8734 30.0402 30.6648 30.2504C30.2439 30.6704 30.2439 31.3521 30.6648 31.7724C31.082 32.1943 31.7638 32.1943 32.1799 31.7724C32.5991 31.3521 32.5984 30.6704 32.1807 30.2504C31.9719 30.0402 31.6975 29.9347 31.4228 29.9347ZM20.0965 31.0536C19.7527 31.0831 19.4432 31.3138 19.3306 31.6635C19.1781 32.1336 19.4296 32.6362 19.8993 32.7879C20.3647 32.939 20.8633 32.6815 21.0168 32.2154C21.1681 31.7472 20.9114 31.2448 20.4457 31.0941C20.3297 31.0562 20.2111 31.0437 20.0965 31.0536ZM17.9272 32.0953C17.5096 32.066 17.0967 32.284 16.8944 32.6805C16.6281 33.212 16.8384 33.8578 17.3641 34.1286C17.8917 34.3994 18.5382 34.1888 18.8095 33.6571C19.0761 33.1283 18.8645 32.4805 18.339 32.2098C18.2065 32.1424 18.0664 32.105 17.9272 32.0953ZM6.95571 32.6487C6.60325 32.6608 6.2502 32.7751 5.94355 32.9986C5.12641 33.5946 4.94462 34.7455 5.54121 35.5679C6.13481 36.3864 7.27787 36.5711 8.0946 35.9727C8.91467 35.3757 9.09529 34.2256 8.50168 33.4058C8.12957 32.8926 7.54314 32.6286 6.95571 32.6487ZM14.9596 32.8141C14.5469 32.8002 14.1343 32.9864 13.873 33.3477C13.4546 33.9234 13.5837 34.731 14.1565 35.152C14.7327 35.5713 15.538 35.4433 15.9567 34.8666C16.3741 34.289 16.2456 33.4789 15.6708 33.0607C15.4551 32.9026 15.2072 32.8225 14.9596 32.8141ZM31.3562 32.8141C31.1084 32.8225 30.86 32.9026 30.6442 33.0607C30.0709 33.4789 29.9437 34.289 30.3607 34.8666C30.7787 35.4433 31.5817 35.5707 32.1585 35.152C32.7338 34.7326 32.8607 33.9234 32.4421 33.3477C32.1813 32.9864 31.7693 32.8002 31.3562 32.8141ZM11.2562 33.1115C10.861 33.1115 10.4661 33.2628 10.1649 33.5664C9.56098 34.1721 9.56098 35.1548 10.1649 35.7596C10.7678 36.3651 11.7447 36.3651 12.35 35.7596C12.9519 35.1538 12.9519 34.1721 12.35 33.5664C12.0473 33.2628 11.6515 33.1115 11.2562 33.1115ZM30.6878 36.224C30.4873 36.2382 30.2857 36.2915 30.0954 36.3886C29.3366 36.778 29.0345 37.71 29.4222 38.476C29.8102 39.2388 30.7406 39.5398 31.5004 39.1503C32.2582 38.7631 32.5615 37.8299 32.1728 37.0669C31.885 36.4951 31.2892 36.1814 30.6878 36.224ZM29.4792 39.9312C29.2423 39.9107 28.9972 39.9365 28.7569 40.0147C27.7966 40.3293 27.2688 41.3638 27.58 42.3288C27.8911 43.2947 28.927 43.8234 29.8863 43.5089C30.8479 43.1948 31.375 42.1584 31.0648 41.194C30.8291 40.4703 30.1898 39.9928 29.4792 39.9312Z" fill="#C14F59"></path><path d="M17.1491 1.83372C16.9119 1.81384 16.6675 1.84034 16.4268 1.9196C15.4684 2.23056 14.9392 3.26866 15.253 4.23206C15.5649 5.19853 16.5993 5.72797 17.557 5.41295C18.5193 5.09893 19.0459 4.06173 18.7331 3.0973C18.5007 2.37093 17.8606 1.89336 17.1491 1.83372ZM15.4059 6.10955C15.2057 6.12403 15.0049 6.17828 14.8151 6.27574C14.0553 6.66304 13.7536 7.59579 14.1427 8.35918C14.5281 9.12411 15.457 9.42756 16.2169 9.0367C16.9733 8.64838 17.2798 7.71608 16.8941 6.95167C16.603 6.38027 16.0063 6.0661 15.4059 6.10955ZM39.2314 9.1035C38.8792 9.11523 38.5259 9.22914 38.2193 9.45339C37.4002 10.0514 37.222 11.2002 37.8146 12.0211C38.4081 12.8425 39.5535 13.0245 40.3711 12.429C41.1907 11.8311 41.3718 10.6809 40.7742 9.86053C40.4042 9.34842 39.8185 9.08394 39.2314 9.1035ZM35.0592 9.21323C34.6642 9.21323 34.2686 9.36452 33.9663 9.66809C33.3636 10.2727 33.3636 11.2551 33.9663 11.8613C34.571 12.4654 35.5469 12.4656 36.1506 11.8605C36.7558 11.2553 36.7558 10.2742 36.1506 9.66807C35.8487 9.3645 35.4542 9.21323 35.0592 9.21323ZM31.4461 10.0283C31.0332 10.0143 30.6216 10.2006 30.3603 10.5619C29.9434 11.1401 30.0708 11.947 30.6446 12.3638C31.2194 12.7857 32.0245 12.6581 32.4417 12.08C32.8603 11.5018 32.7334 10.6957 32.1581 10.2748C31.9418 10.1176 31.6939 10.0367 31.4461 10.0283ZM14.8681 10.0291C14.6201 10.0376 14.3722 10.118 14.1561 10.2749C13.5833 10.6957 13.4542 11.502 13.8726 12.0792C14.2908 12.6583 15.0952 12.7833 15.6704 12.3655C16.2452 11.9466 16.3737 11.1401 15.9563 10.5619C15.6946 10.2006 15.2815 10.0151 14.8681 10.0291ZM28.5403 11.183C28.124 11.1528 27.7099 11.3693 27.5099 11.7675C27.2371 12.2993 27.4493 12.9478 27.9756 13.2155C28.5059 13.4873 29.151 13.2756 29.4202 12.7464C29.6879 12.2155 29.4769 11.566 28.9498 11.2983C28.8182 11.2309 28.6791 11.1931 28.5403 11.183ZM26.0677 12.6C25.7232 12.6293 25.4132 12.8607 25.3011 13.2108C25.1492 13.679 25.4054 14.1819 25.8689 14.3336C26.3346 14.4837 26.8356 14.2298 26.9864 13.7626C27.1363 13.2954 26.8831 12.792 26.4178 12.6414C26.3014 12.6031 26.1825 12.5903 26.0677 12.6ZM14.8927 13.3396C14.6176 13.3401 14.3425 13.4459 14.134 13.6553C13.7142 14.0736 13.7162 14.7579 14.134 15.1757C14.5531 15.598 15.2332 15.598 15.6514 15.1757C16.0712 14.7579 16.0712 14.0733 15.653 13.6529C15.4431 13.4432 15.1677 13.339 14.8927 13.3396ZM24.3673 14.0998C24.0273 14.1149 23.736 14.367 23.6783 14.7193C23.6195 15.1158 23.8896 15.4902 24.2833 15.5566C24.6855 15.6176 25.0599 15.347 25.1221 14.9443C25.1841 14.5473 24.9104 14.1729 24.5154 14.1077C24.4654 14.0998 24.4159 14.0976 24.3673 14.0998ZM15.3718 16.122C15.0871 16.1121 14.8038 16.2396 14.6266 16.4894C14.3383 16.885 14.425 17.4416 14.819 17.7307C15.215 18.0216 15.769 17.9311 16.0577 17.5343C16.3466 17.1361 16.2563 16.5805 15.8629 16.2914C15.7139 16.1832 15.5427 16.128 15.3718 16.122ZM16.1274 18.3597C15.8447 18.3394 15.5635 18.488 15.4257 18.7597C15.2425 19.1196 15.3847 19.5595 15.7441 19.7434C16.1044 19.9309 16.5436 19.7843 16.7238 19.4245C16.9079 19.0621 16.7657 18.6227 16.4054 18.4384C16.316 18.3925 16.2216 18.3665 16.1274 18.3597ZM31.0398 20.7342C30.9913 20.7319 30.9424 20.7337 30.8925 20.7414C30.4965 20.8063 30.2249 21.1803 30.2882 21.5811C30.3502 21.9793 30.725 22.2501 31.1214 22.1886C31.5178 22.1248 31.7899 21.7521 31.7281 21.3513C31.6735 21.0001 31.3796 20.7503 31.0398 20.7342ZM3.20999 20.8757C2.19898 20.8757 1.37891 21.6996 1.37891 22.7134C1.37891 23.7293 2.19822 24.552 3.20999 24.552C4.22116 24.552 5.03871 23.7293 5.03871 22.7134C5.03871 21.6996 4.22116 20.8757 3.20999 20.8757ZM32.8202 21.8228C32.3306 21.8228 31.934 22.2234 31.934 22.7134C31.934 23.2035 32.3306 23.6053 32.8202 23.6025C33.3109 23.6025 33.7065 23.2035 33.7065 22.7134C33.7065 22.2234 33.3109 21.8228 32.8202 21.8228ZM34.6513 23.4737C34.1539 23.4955 33.7226 23.8685 33.6423 24.3834C33.5491 24.9691 33.9484 25.5203 34.5333 25.6128C35.1198 25.7064 35.6669 25.3051 35.7601 24.7182C35.8529 24.1297 35.4548 23.5783 34.8683 23.4864C34.7954 23.4746 34.7224 23.4705 34.6513 23.4737ZM6.60448 23.8077C6.50195 23.803 6.39695 23.8085 6.29164 23.8251C5.44977 23.9591 4.87499 24.7544 5.00703 25.6C5.1413 26.446 5.93245 27.0235 6.77396 26.8883C7.61979 26.7549 8.19259 25.9599 8.05858 25.1142C7.94233 24.3735 7.32217 23.8402 6.60448 23.8077ZM9.92768 25.7766C9.76106 25.762 9.5889 25.7796 9.42001 25.8346C8.74425 26.0567 8.37475 26.7855 8.59555 27.4656C8.81568 28.1433 9.53996 28.5141 10.2152 28.2926C10.8933 28.0737 11.2602 27.3446 11.0428 26.6648C10.8777 26.1572 10.4275 25.8204 9.92768 25.7766ZM36.3866 25.7766C35.8865 25.8205 35.4365 26.1581 35.2715 26.6672C35.0545 27.345 35.4232 28.0737 36.0999 28.2926C36.7756 28.5141 37.4995 28.1433 37.7195 27.4656C37.942 26.7855 37.5689 26.0567 36.8943 25.8346C36.7253 25.7796 36.5533 25.7619 36.3866 25.7766ZM12.6664 26.9662C12.5274 26.9758 12.3882 27.0126 12.2561 27.0799C11.7285 27.3497 11.5168 28.0006 11.7865 28.5304C12.0568 29.0624 12.7017 29.2717 13.2287 29.0011C13.76 28.7318 13.9682 28.0821 13.6976 27.5539C13.4971 27.1561 13.0835 26.9374 12.6664 26.9662ZM15.3093 27.5268C15.1387 27.5325 14.9675 27.587 14.819 27.6954C14.4244 27.9853 14.3379 28.5415 14.6226 28.9383C14.9117 29.3381 15.4657 29.4252 15.8629 29.1363C16.2563 28.8473 16.347 28.2886 16.0585 27.8918C15.8778 27.6446 15.5936 27.5174 15.3093 27.5268ZM17.5379 27.6238C17.3514 27.6238 17.1644 27.6943 17.0216 27.837C16.7364 28.1254 16.7364 28.5878 17.0216 28.8731C17.3087 29.1596 17.7686 29.158 18.0527 28.8747C18.3388 28.5864 18.3388 28.1234 18.0527 27.837C17.9107 27.6946 17.7245 27.6239 17.5379 27.6238ZM38.2652 28.8381C37.6656 28.796 37.069 29.1102 36.7762 29.6826C36.389 30.4447 36.6926 31.3786 37.4534 31.7685C38.2132 32.1563 39.1404 31.8529 39.5292 31.0902C39.9175 30.3261 39.6148 29.3918 38.8544 29.0027C38.665 28.9058 38.4651 28.8522 38.2652 28.8381ZM26.7124 29.0926C26.6175 29.0995 26.5218 29.1252 26.4312 29.1713C26.0774 29.3564 25.9331 29.796 26.1152 30.1558C26.2974 30.5172 26.7385 30.6619 27.0965 30.4763C27.4529 30.291 27.5985 29.8514 27.4149 29.491C27.2775 29.2201 26.9972 29.072 26.7124 29.0926ZM26.2182 31.0536C26.1033 31.0437 25.9853 31.0562 25.8689 31.0941C25.406 31.2448 25.1492 31.7472 25.3011 32.2154C25.4505 32.6815 25.9525 32.937 26.4178 32.7879C26.8831 32.6346 27.1363 32.1317 26.9864 31.6635C26.8733 31.3139 26.5628 31.0832 26.2182 31.0536ZM39.3597 32.6496C38.7726 32.6298 38.1862 32.8936 37.8146 33.4058C37.2185 34.2256 37.4002 35.3767 38.2193 35.9727C39.0394 36.5711 40.1822 36.3864 40.7742 35.568C41.3718 34.7455 41.1897 33.5947 40.3711 32.9986C40.0645 32.7752 39.712 32.6614 39.3597 32.6496ZM25.0334 33.2293C24.9622 33.2261 24.8894 33.2303 24.8164 33.242C24.2343 33.3336 23.8351 33.8855 23.9285 34.4714C24.0202 35.0586 24.5669 35.4622 25.153 35.3676C25.7376 35.2743 26.1372 34.7232 26.0432 34.135C25.964 33.6215 25.5318 33.2511 25.0334 33.2293ZM23.1579 35.5035C22.4461 35.5035 21.8709 36.0823 21.8709 36.7958C21.8709 37.5093 22.4461 38.0888 23.1579 38.0888C23.869 38.0888 24.4433 37.5093 24.4433 36.7958C24.4433 36.0823 23.869 35.5035 23.1579 35.5035ZM20.4556 37.8542C19.7379 37.8868 19.1161 38.4217 18.9992 39.1631C18.8652 40.0054 19.4401 40.802 20.2838 40.9348C21.1233 41.0702 21.9159 40.4932 22.0476 39.6458C22.1828 38.8004 21.609 38.0071 20.7685 37.8717C20.6632 37.8549 20.5582 37.8495 20.4556 37.8542ZM16.8362 39.9313C16.1265 39.9928 15.4869 40.4703 15.253 41.194C14.9392 42.1584 15.4659 43.1948 16.4268 43.5089C17.3896 43.8234 18.4232 43.2948 18.7331 42.3288C19.0459 41.3638 18.5193 40.3293 17.557 40.0147C17.3171 39.9365 17.0728 39.9107 16.8362 39.9313Z" fill="#62C2B8"></path><path d="M59.3435 11.8503C58.5451 11.8503 57.8949 12.5027 57.8949 13.3048C57.8949 14.1058 58.5451 14.7592 59.3435 14.7592C60.1413 14.7592 60.8213 14.1058 60.8213 13.3048C60.8213 12.5027 60.1413 11.8503 59.3435 11.8503ZM54.6422 12.2058C52.158 12.2058 50.9452 13.9575 50.9452 16.1246V18.8863H49.084V20.5181H50.9452V33.4012H53.0756V20.5181H56.1802V18.8863H53.0756V16.1842C53.0756 14.8478 53.6666 14.0467 55.0271 14.0467H56.1802V12.2058H54.6422ZM91.6908 12.2654V33.4012H95.5344V23.9613C95.5344 21.9425 96.8051 21.2306 98.0181 21.2306C99.2295 21.2306 100.531 21.9133 100.531 23.9613V33.4012H104.375V23.3975C104.375 20.1316 102.601 17.7571 99.2298 17.7571C97.8709 17.7571 96.5689 18.2915 95.5344 19.3611V12.2654H91.6908ZM83.5888 17.7571C80.4552 17.7571 77.6464 19.4798 77.6464 22.6858C77.6464 25.5354 79.361 26.7523 82.1402 27.0189L84.5645 27.2567C85.7769 27.3756 86.1912 27.9103 86.1912 28.6825C86.1912 29.8399 84.8008 30.2848 83.4707 30.2848C82.2877 30.2848 80.6328 30.1079 79.3611 28.8304L76.8481 31.3536C78.7996 33.313 80.987 33.5801 83.4113 33.5801C87.0482 33.5801 89.9461 31.9474 89.9461 28.5346C89.9461 25.9209 88.4081 24.288 85.3628 23.9908L82.9385 23.7538C81.5781 23.6353 81.3419 22.9826 81.3419 22.417C81.3419 21.6465 81.9923 20.9348 83.5301 20.9348C84.8607 20.9348 86.2206 21.1718 87.1076 21.9725L89.4725 19.5686C87.9934 18.1732 85.9837 17.7571 83.5888 17.7571ZM112.122 17.7571C109.549 17.7571 108.072 18.2321 106.564 19.8946L109.017 22.2986C109.816 21.3793 110.497 21.023 111.975 21.023C114.014 21.023 114.842 21.765 114.842 23.4572V24.2285H111.206C107.628 24.2285 105.943 26.2475 105.943 28.7119C105.943 30.0775 106.387 31.3241 107.214 32.1854C108.13 33.106 109.402 33.5499 111.146 33.5499C112.92 33.5499 113.897 33.1062 114.931 32.0669V33.4012H118.685V23.2202C118.685 19.5982 116.438 17.7571 112.122 17.7571ZM128.976 17.7571C127.32 17.7571 125.841 18.5291 125.102 19.4199V17.9353H121.347V33.4012H125.191V24.0806C125.191 22.1216 126.492 21.2306 127.675 21.2306C128.621 21.2306 129.124 21.5574 129.715 22.1506L132.612 19.2124C131.548 18.1434 130.483 17.7571 128.976 17.7571ZM138.349 17.7571C134.357 17.7571 131.637 20.6074 131.637 25.6535C131.637 31.9172 135.126 33.5801 138.763 33.5801C141.542 33.5801 143.051 32.7197 144.617 31.146L142.281 28.8598C141.306 29.8395 140.478 30.315 138.792 30.315C136.634 30.315 135.422 28.8604 135.422 26.8718H145.061V25.1502C145.061 20.9048 142.635 17.7571 138.349 17.7571ZM68.8347 18.6183C67.3556 18.6183 66.055 19.1237 65.2866 19.8946C63.8369 21.3493 63.5125 23.6055 63.5125 25.9804C63.5125 28.3554 63.8369 30.6124 65.2866 32.0669C66.055 32.8384 67.3266 33.3718 68.8046 33.3718C70.3719 33.3718 71.7029 32.9867 72.885 31.4721V33.7575C72.885 36.2522 71.7032 38.2408 68.8941 38.2408C67.2088 38.2408 66.469 37.7369 65.4046 36.7856L64.0154 38.1526C65.5518 39.5466 66.765 40.112 68.9527 40.112C72.7665 40.112 75.0138 37.4687 75.0138 33.8465V18.7973H72.9143V20.5181C71.7317 18.9752 70.4298 18.6183 68.8347 18.6183ZM58.279 18.7973V33.4012H60.4079V18.7973H58.279ZM69.2774 20.5181C72.4414 20.5181 72.885 23.2494 72.885 25.9804C72.885 28.7115 72.4414 31.4426 69.2774 31.4426C66.1135 31.4426 65.6414 28.7115 65.6414 25.9804C65.6414 23.2494 66.1135 20.5181 69.2774 20.5181ZM138.349 20.9642C139.65 20.9642 140.508 21.6467 140.921 22.5665C141.158 23.1307 141.246 23.5464 141.276 24.2285H135.422C135.452 23.5464 135.54 23.1307 135.777 22.5665C136.19 21.6467 137.048 20.9642 138.349 20.9642ZM111.796 26.8718H114.842V27.702C114.842 28.6529 114.694 29.2759 114.28 29.6614C113.6 30.3154 112.92 30.4041 111.856 30.4041C110.348 30.4041 109.638 29.691 109.638 28.6228C109.638 27.5238 110.407 26.8718 111.796 26.8718Z" fill="#505F69"></path></g><defs><clipPath id="clip0_347_4861"><rect width="145" height="45" fill="white" transform="translate(0.719727 0.242676)"></rect></clipPath></defs></svg> 