<svg xmlns="http://www.w3.org/2000/svg" viewBox="0 0 24 24" id="mendeley">
  <path fill="#A61B28" d="M2.033 18.607c1.767.221 3.061-1.6 2.296-3.276-1.773-3.869 6.971-3.958 5.493-.306-.004.004-.007.007-.011.015-1.005 1.597.255 3.634 2.205 3.551 1.954.078 3.202-1.962 2.205-3.551a.065.065 0 0 0-.011-.015c-1.477-3.652 7.267-3.563 5.493.306a2.429 2.429 0 0 0-.214 1.231c.184 1.992 2.576 2.764 3.933 1.313.667-.552.866-2.447 0-3.294a2.22 2.22 0 0 0-1.815-.642c-1.624-.037-1.864-1.302-1.406-3.685.855-2.145-.558-4.906-3.277-4.879-2.902.026-3.064 3.059-4.909 3.059-1.804 0-2.025-3.033-4.909-3.059-2.733-.029-4.128 2.735-3.277 4.88.458 2.383.218 3.648-1.406 3.685-.795-.086-1.387.243-1.987.84-.747.734-.724 3.536 1.597 3.827zm9.972-9.424h.022a2.348 2.348 0 0 1 2.355 2.343c0 .933-.72 2.343-2.355 2.343h-.022c-1.627 0-2.355-1.399-2.355-2.343a2.35 2.35 0 0 1 2.355-2.343z"></path>
</svg>
